<?xml version="1.0" standalone="no"?>
<!DOCTYPE svg PUBLIC "-//W3C//DTD SVG 20010904//EN"
 "http://www.w3.org/TR/2001/REC-SVG-20010904/DTD/svg10.dtd">
<svg version="1.0" xmlns="http://www.w3.org/2000/svg"
 width="524.000000pt" height="728.000000pt" viewBox="0 0 524.000000 728.000000"
 preserveAspectRatio="xMidYMid meet">
<metadata>
Created by potrace 1.16, written by Peter Selinger 2001-2019
</metadata>
<g transform="translate(0.000000,728.000000) scale(0.100000,-0.100000)"
fill="#000000" stroke="none">
<path d="M382 6932 c-7 -5 -21 -55 -31 -113 -35 -192 -90 -486 -97 -512 -3
-15 -11 -28 -18 -28 -6 -1 -18 -2 -26 -3 -18 -1 -35 -48 -27 -70 6 -14 21 -16
99 -14 l93 3 3 38 c2 28 -1 37 -12 37 -22 0 -28 15 -20 55 l6 35 74 0 73 0 10
-37 c10 -37 7 -58 -9 -48 -12 7 -25 -23 -25 -55 0 -25 1 -25 95 -25 l95 0 3
36 c3 34 1 37 -30 43 -39 7 -29 -30 -98 351 -58 314 -56 308 -105 312 -22 2
-46 -1 -53 -5z m82 -359 c12 -68 20 -125 18 -128 -10 -9 -101 -5 -107 5 -6 9
5 78 36 230 15 70 21 57 53 -107z"/>
<path d="M377 6017 c-35 -60 -132 -177 -169 -205 -10 -7 -18 -17 -18 -22 0 -4
25 -34 55 -67 47 -49 121 -150 160 -218 9 -15 17 -6 57 61 25 44 76 112 113
152 l68 73 -61 62 c-58 61 -135 169 -147 208 -4 10 -10 19 -14 19 -4 0 -23
-28 -44 -63z"/>
<path d="M2538 4197 c-117 -207 -207 -324 -372 -487 -61 -61 -106 -113 -106
-124 0 -11 44 -63 104 -122 118 -116 245 -282 331 -429 93 -159 85 -149 100
-134 7 8 31 50 55 93 96 180 193 309 358 478 l115 117 -125 129 c-163 167
-278 325 -367 500 -17 34 -35 62 -39 62 -4 0 -28 -37 -54 -83z"/>
<path d="M4792 1601 c-29 -45 -80 -110 -113 -145 -32 -35 -59 -68 -59 -73 0
-5 23 -31 51 -58 44 -44 98 -118 153 -208 l18 -29 44 77 c25 42 77 109 115
150 l71 74 -58 58 c-48 48 -109 133 -159 218 -9 14 -18 5 -63 -64z"/>
<path d="M4613 992 c-19 -3 -23 -10 -23 -42 0 -36 2 -39 32 -42 32 -3 33 -4
45 -73 7 -38 34 -185 61 -325 l49 -255 54 0 54 0 16 80 c9 44 35 186 59 315
23 129 44 241 46 248 2 6 17 12 34 12 28 0 30 2 30 39 0 44 -9 49 -104 50 -76
2 -86 -4 -86 -50 0 -33 3 -39 21 -39 19 0 21 -4 15 -31 -3 -17 -6 -35 -6 -40
0 -5 -36 -9 -80 -9 -72 0 -80 2 -80 19 0 11 -3 27 -6 36 -5 11 0 18 15 22 17
4 21 13 21 43 0 34 -3 39 -27 44 -27 6 -93 5 -140 -2z m277 -262 c0 -26 -52
-266 -59 -273 -4 -4 -13 23 -20 60 -6 37 -18 101 -25 140 -7 40 -11 75 -8 78
10 10 112 5 112 -5z"/>
</g>
</svg>
