<?xml version="1.0" standalone="no"?>
<!DOCTYPE svg PUBLIC "-//W3C//DTD SVG 20010904//EN"
 "http://www.w3.org/TR/2001/REC-SVG-20010904/DTD/svg10.dtd">
<svg version="1.0" xmlns="http://www.w3.org/2000/svg"
 width="400.000000pt" height="400.000000pt" viewBox="0 0 400.000000 400.000000"
 preserveAspectRatio="xMidYMid meet">
<metadata>
Created by potrace 1.16, written by Peter Selinger 2001-2019
</metadata>
<g transform="translate(0.000000,400.000000) scale(0.100000,-0.100000)"
fill="#000000" stroke="none">
<path d="M462 2053 l3 -608 2 602 3 603 423 3 422 2 -427 3 -428 2 2 -607z"/>
<path d="M2352 2053 l3 -608 2 602 3 603 453 3 452 2 -457 3 -458 2 2 -607z"/>
<path d="M635 2050 l0 -435 330 0 330 0 -327 2 -328 3 -3 433 -2 432 0 -435z"/>
</g>
</svg>
